<?xml version="1.0" encoding="utf-8"?>
<!-- Generator: Adobe Illustrator 24.1.0, SVG Export Plug-In . SVG Version: 6.00 Build 0)  -->
<svg version="1.1" xmlns="http://www.w3.org/2000/svg" xmlns:xlink="http://www.w3.org/1999/xlink" x="0px" y="0px"
	 viewBox="0 0 329.42 244.53" style="enable-background:new 0 0 329.42 244.53;" xml:space="preserve">
<style type="text/css">
	.st0{fill-rule:evenodd;clip-rule:evenodd;fill:#FFFFFF;}
	.st1{fill-rule:evenodd;clip-rule:evenodd;fill:#88B59E;}
	.st2{fill-rule:evenodd;clip-rule:evenodd;fill:#2F704F;}
	.st3{fill:#293D33;}
	.st4{fill-rule:evenodd;clip-rule:evenodd;fill:#293D33;}
	.st5{fill:#8A5119;}
	.st6{fill-rule:evenodd;clip-rule:evenodd;fill:#B2773D;}
	.st7{fill:#B2773D;}
	.st8{fill-rule:evenodd;clip-rule:evenodd;fill:#707346;}
	.st9{fill-rule:evenodd;clip-rule:evenodd;fill:#8A5119;}
	.st10{fill:#FFFFFF;}
	.st11{fill:#84D7D6;}
	.st12{fill:#EEAF1B;}
</style>
<g id="Background">
</g>
<g id="Objects">
	<g>
		<path class="st10" d="M290.4,91.71c-4.71-3.62-10.41-5.69-16.23-6.16c-5.76-0.46-11.73,0.66-17.01,3.42
			c-5.65,2.95-10.45,7.7-13.33,14.27c-6.8-17.59-19.1-32.54-34.87-42.83l-102.76,0.61C86.54,74.19,72.42,94.63,67.9,118.37
			c-25.61-0.78-4.62-46.68-35.87-61.33c-2.68-1.35-4.76,5.21-11.01,3.22c-6.21-1.97-10.09,3.07-8.19,3.49
			c53.68,11.88-20.41,92.91,60.13,104.5c13.57,32.86,46.54,56.05,85.06,56.05c28.57,0,54.09-12.76,70.91-32.76
			c0.86,1.01,1.99,1.81,3.35,2.23c3.82,1.19,7.88-0.94,9.07-4.76c2.88-9.26,11.86-14.54,21.56-20.26
			c14.94-8.8,31.27-18.42,37.34-43.38C304.07,109.69,298.96,98.3,290.4,91.71z M286.19,121.97c-4.63,19-18.19,27-30.59,34.3
			c-3.63,2.14-7.15,4.24-10.46,6.5c2.96-8.8,4.57-18.19,4.57-27.95c0-2.35-0.1-4.67-0.29-6.97c3.65-0.59,6.32-3.87,6.07-7.63
			c-0.66-9.7,3.16-15.72,8.35-18.43c2.78-1.45,6-2.03,9.19-1.78c3.13,0.25,6.13,1.31,8.52,3.15
			C285.93,106.53,288.42,112.81,286.19,121.97z"/>
		<path class="st10" d="M208.95,53.42c-11.91-7.98-25.87-13.24-40.96-14.86c2.08-2.35,3.35-5.42,3.35-8.79
			c0-7.33-5.98-13.31-13.31-13.31c-7.33,0-13.31,5.98-13.31,13.31c0,3.37,1.27,6.44,3.35,8.79c-15.08,1.62-29.05,6.88-40.96,14.86
			H208.95z"/>
	</g>
	<g>
		<path class="st11" d="M101.1,125.16c0.18,0,0.34-0.04,0.49-0.14v-2.46c1.22-0.83,2.94-1.5,5.14-2.03
			c2.21-0.52,4.35-0.78,6.44-0.78c0.95,0.97,1.75,2.42,2.39,4.36c0.64,1.93,0.98,3.68,1.01,5.25c-0.36,0.72-0.97,1.5-1.82,2.32
			s-1.88,1.59-3.09,2.3c-2.99,1.77-6.42,2.65-10.29,2.65c-5.54,0-9.91-1.61-13.1-4.83c-3.29-3.26-4.94-7.77-4.94-13.55
			c0-5.77,1.8-10.3,5.4-13.59c1.59-1.47,3.43-2.59,5.54-3.33c2.11-0.75,4.32-1.12,6.64-1.12c4.54,0,8.26,1.1,11.15,3.29
			s4.35,4.9,4.35,8.13c0,2.43-0.75,4.23-2.24,5.38c-1.49,1.17-3.52,1.74-6.08,1.74c-1.4,0-2.82-0.35-4.24-1.04
			c-1.42-0.69-2.27-1.34-2.54-1.96c0-1.47,0.03-2.64,0.08-3.48c-0.04-0.02-0.1-0.03-0.19-0.03h-0.19c-0.27,0-0.48,0.08-0.63,0.23
			c-0.15,0.16-0.29,0.48-0.41,0.96c-0.12,0.49-0.18,1.81-0.18,3.97C99.8,122.58,100.23,125.16,101.1,125.16z"/>
		<path class="st11" d="M131.99,103.32v18.98c0,2.68,0.65,4.43,1.94,5.24c0.02,0.09,0.03,0.26,0.03,0.51v0.49
			c0,2.58-0.65,4.53-1.96,5.86c-1.3,1.33-3.15,2-5.55,2s-4.29-0.66-5.7-2c-1.67-1.58-2.51-3.98-2.51-7.18V99.16
			c1.89-1.15,4.06-1.73,6.49-1.73s4.26,0.52,5.45,1.55C131.39,100.02,131.99,101.46,131.99,103.32z"/>
		<path class="st11" d="M149.03,111.61v10.69c0,2.68,0.65,4.43,1.94,5.24c0.02,0.09,0.03,0.26,0.03,0.51v0.49
			c0,2.65-0.72,4.63-2.16,5.97c-1.33,1.26-3.11,1.89-5.33,1.89c-2.22,0-4.06-0.63-5.5-1.89c-1.82-1.6-2.73-3.94-2.73-7.02v-17.55
			c0.32-0.23,0.68-0.42,1.05-0.57c0.38-0.15,0.78-0.32,1.19-0.54c-0.78-0.39-1.48-1.09-2.11-2.07c-0.63-0.98-0.95-2.13-0.95-3.44
			c0-2.27,0.75-4.12,2.24-5.56c1.49-1.44,3.33-2.16,5.5-2.16s3.99,0.73,5.45,2.2c1.47,1.47,2.2,3.31,2.2,5.53
			c0,1.78-0.56,3.34-1.67,4.68c-1.12,1.34-2.48,2.19-4.08,2.53c0,0.69,0.26,1.03,0.78,1.03c0.92,0,1.86-0.36,2.81-1.08
			C148.43,111.03,148.87,111.41,149.03,111.61z"/>
		<path class="st11" d="M166.69,136.75c-4.68,0-8.41-1.44-11.19-4.34c-2.78-2.88-4.17-6.76-4.17-11.62c0-4.86,1.57-8.71,4.73-11.53
			c2.81-2.52,6.32-3.78,10.53-3.78c3.75,0,6.85,0.92,9.32,2.77c2.47,1.84,3.7,4.35,3.7,7.52c0,2.2-0.68,3.99-2.04,5.36
			c-1.36,1.38-3.15,2.07-5.36,2.07c-1.8,0-3.3-0.48-4.5-1.44c-1.2-0.97-1.9-2.22-2.12-3.77c-0.79,0-1.19,0.29-1.19,0.86
			c0,1.31,0.65,2.52,1.94,3.62c1.49,1.3,3.35,1.94,5.58,1.94c2.22,0,4.06-0.48,5.52-1.43c0.9,1.39,1.35,3.07,1.35,5.05
			c0,2.31-0.99,4.28-2.97,5.91C173.55,135.81,170.51,136.75,166.69,136.75z"/>
		<path class="st11" d="M194.34,125.76l-1.3,0.57c0,1.2,0.23,2.5,0.7,3.86c0.4,1.3,0.95,2.45,1.65,3.46
			c-1.78,1.84-4.26,2.75-7.43,2.75c-1.82,0-3.39-0.48-4.73-1.43c-1.55-1.08-2.32-2.51-2.32-4.29V99.16c0.86-0.5,1.9-0.92,3.12-1.24
			c1.22-0.32,2.44-0.49,3.69-0.49c2.07,0,3.78,0.41,5.13,1.22c1.53,0.96,2.3,2.32,2.3,4.1v2.86c0,2.39-0.42,4.74-1.27,7.02
			c-0.16,0.23-0.45,0.57-0.86,1.02c-0.41,0.44-0.74,0.84-0.99,1.2c-0.24,0.36-0.36,0.67-0.36,0.93c0,0.26,0.22,0.5,0.65,0.72
			c1.4-1.31,2.51-2.74,3.31-4.29c0.8-1.55,1.53-3.6,2.2-6.16c0.23-0.04,0.5-0.08,0.81-0.14c0.31-0.05,0.82-0.14,1.53-0.25
			c0.71-0.12,1.21-0.18,1.5-0.18c2.77,0,4.93,0.63,6.48,1.91c1.55,1.26,2.32,3.01,2.32,5.22s-0.7,4.12-2.11,5.7
			c-1.3,1.42-2.98,2.5-5.05,3.21c1.66,0.97,3.75,1.66,6.27,2.08c0.97,1.77,1.46,3.64,1.46,5.63c0,1.99-0.63,3.65-1.89,4.99
			c-1.4,1.46-3.34,2.19-5.82,2.19s-4.51-0.95-6.1-2.85C195.63,131.65,194.67,129.05,194.34,125.76z"/>
	</g>
	<g>
		<path class="st12" d="M178.92,158.85c0,1.31,0.14,2.39,0.43,3.21c0.29,0.83,0.79,1.47,1.51,1.92c0.02,0.09,0.03,0.24,0.03,0.46
			v0.41c0,2.47-0.72,4.39-2.16,5.78c-1.44,1.39-3.3,2.08-5.58,2.08s-4.11-0.62-5.5-1.86c-1.64-1.44-2.46-3.65-2.46-6.62v-8.53
			c0-1.2-0.4-1.81-1.19-1.81c-0.31,0-0.55,0.07-0.73,0.22l0.49,4.02v6.1c0,2.45,0.41,4.3,1.22,5.56c-0.86,0.92-1.94,1.63-3.23,2.15
			c-1.29,0.51-2.6,0.77-3.93,0.77c-2.16,0-3.83-0.52-5.02-1.57c-1.44-1.26-2.16-3.25-2.16-5.97v-9.48c0-1.2-0.4-1.81-1.19-1.81
			c-0.31,0-0.55,0.07-0.73,0.22l0.49,4.02v7.16c0,2.01,0.27,3.58,0.81,4.67c-1.76,1.82-4.24,2.73-7.43,2.73
			c-1.89,0-3.48-0.48-4.78-1.43c-1.49-1.1-2.24-2.58-2.24-4.43v-12.91c-1.06-1.5-1.59-3.34-1.59-5.52c0-2.19,0.53-4.08,1.59-5.69
			h6.51c1.28,0,2.37,0.48,3.27,1.43c-0.79,0.74-1.19,1.35-1.19,1.84c0,0.56,0.32,0.84,0.95,0.84c0.79-1.37,1.88-2.46,3.27-3.27
			c1.62-0.92,3.52-1.38,5.7-1.38c1.66,0,3.11,0.35,4.36,1.05s2.18,1.51,2.79,2.43c0.85-1.15,1.95-2.02,3.31-2.6
			c1.36-0.59,2.78-0.88,4.25-0.88c3.26,0,5.79,1.01,7.59,3.02c1.76,2.01,2.65,4.78,2.65,8.29L178.92,158.85z"/>
		<path class="st12" d="M197.44,173.06c-4.99,0-8.92-1.39-11.8-4.16c-2.95-2.79-4.43-6.61-4.43-11.47c0-4.85,1.52-8.7,4.56-11.54
			c2.81-2.65,6.36-3.97,10.67-3.97s7.76,1.18,10.36,3.55c2.6,2.37,3.9,5.28,3.9,8.73c0,3.08-1.07,5.4-3.21,6.97
			c-1.98,1.47-4.68,2.21-8.1,2.21c-2.56,0-4.72-0.53-6.48-1.59c-0.14,0.11-0.22,0.31-0.22,0.59c0,0.54,0.71,1.04,2.13,1.49
			c1.42,0.49,3.04,0.73,4.85,0.73s3.46-0.23,4.94-0.69c1.49-0.45,2.68-1,3.58-1.63c0.43,0.38,0.78,1.07,1.04,2.1
			c0.26,1.02,0.39,1.94,0.39,2.78c0,0.84-0.08,1.58-0.24,2.23c-1.4,1.19-2.84,2.04-4.32,2.54
			C202.97,172.68,200.43,173.06,197.44,173.06z M197.09,154.78c0.9,0,1.35-0.34,1.35-1.03c0-0.65-0.48-0.97-1.43-0.97
			c-0.95,0-1.5,0.51-1.65,1.54C195.87,154.63,196.44,154.78,197.09,154.78z"/>
		<path class="st12" d="M223.34,156.42c-0.94-0.42-1.76-0.62-2.48-0.62c-0.72,0-1.08,0.33-1.08,1v0.11
			c2.05,0.15,3.79,0.97,5.21,2.47c1.42,1.51,2.13,3.31,2.13,5.4c0,2.1-0.76,3.92-2.3,5.44c-1.55,1.51-3.39,2.27-5.54,2.27
			s-3.98-0.76-5.5-2.28c-1.52-1.52-2.28-3.35-2.28-5.47c0-1.44,0.36-2.77,1.09-3.98c0.73-1.22,1.7-2.18,2.9-2.88
			c-1.08-1.87-1.94-4.02-2.59-6.45c-0.65-2.43-0.97-4.95-0.97-7.56v-8.8c0.76-0.54,1.74-0.98,2.94-1.32s2.43-0.51,3.67-0.51
			c2.7,0,4.65,0.68,5.85,2.04c1.2,1.36,1.8,3.65,1.8,6.87v1.73C226.2,148.03,225.25,152.21,223.34,156.42z"/>
	</g>
</g>
</svg>
