<?xml version="1.0" encoding="utf-8"?>
<!-- Generator: Adobe Illustrator 24.1.0, SVG Export Plug-In . SVG Version: 6.00 Build 0)  -->
<svg version="1.1" xmlns="http://www.w3.org/2000/svg" xmlns:xlink="http://www.w3.org/1999/xlink" x="0px" y="0px"
	 viewBox="0 0 273.68 230.88" style="enable-background:new 0 0 273.68 230.88;" xml:space="preserve">
<style type="text/css">
	.st0{fill-rule:evenodd;clip-rule:evenodd;fill:#FFFFFF;}
	.st1{fill-rule:evenodd;clip-rule:evenodd;fill:#88B59E;}
	.st2{fill-rule:evenodd;clip-rule:evenodd;fill:#2F704F;}
	.st3{fill:#293D33;}
	.st4{fill-rule:evenodd;clip-rule:evenodd;fill:#293D33;}
	.st5{fill:#8A5119;}
	.st6{fill-rule:evenodd;clip-rule:evenodd;fill:#B2773D;}
	.st7{fill:#B2773D;}
	.st8{fill-rule:evenodd;clip-rule:evenodd;fill:#707346;}
	.st9{fill-rule:evenodd;clip-rule:evenodd;fill:#8A5119;}
	.st10{fill:#FFFFFF;}
	.st11{fill:#84D7D6;}
	.st12{fill:#EEAF1B;}
	.st13{fill:#F78154;}
	.st14{fill-rule:evenodd;clip-rule:evenodd;fill:#EEAF1B;}
	.st15{fill:#545F66;}
</style>
<g id="Background">
</g>
<g id="Objects">
	<g>
		<path class="st15" d="M107.05,115.99v19.51c0,4.89,1.18,8.08,3.55,9.56c0.03,0.16,0.05,0.48,0.05,0.93v0.89
			c0,4.82-1.31,8.46-3.94,10.89c-2.43,2.3-5.67,3.45-9.73,3.45c-4.06,0-7.4-1.15-10.03-3.45c-3.32-2.92-4.98-7.19-4.98-12.81v-28.43
			c-1.68,2.1-4.09,3.15-7.24,3.15H60.29c-0.1,0.23-0.15,0.48-0.15,0.74c0,0.59,0.34,0.99,1.03,1.18c0.72,0.23,2.27,0.34,4.63,0.34
			h3.4v34.64c-1.51,1.32-3.53,2.41-6.06,3.3c-2.53,0.88-5.6,1.33-9.21,1.33s-6.68-0.81-9.21-2.42c-2.86-1.74-4.29-4.2-4.29-7.38
			v-31.73H28.95c-2.37-3.39-3.55-7.08-3.55-11.09c0-2.72,0.43-5.1,1.31-7.12c0.87-2.02,1.94-3.59,3.23-4.71h48.43
			c-0.39,1.28-0.59,2.59-0.59,3.92c0,1.33,0.21,2.43,0.64,3.3c0.43,0.87,1.03,1.31,1.82,1.31c0.36,0,0.69-0.05,0.99-0.15
			c-0.49-1.25-0.74-2.68-0.74-4.29c0-4.14,1.36-7.52,4.09-10.14c2.73-2.63,6.07-3.94,10.03-3.94c3.96,0,7.27,1.33,9.95,4.01
			c2.68,2.68,4.01,6.04,4.01,10.07c0,3.26-1.02,6.1-3.05,8.55c-2.04,2.45-4.52,3.98-7.44,4.61c0,1.25,0.48,1.87,1.43,1.87
			c1.68,0,3.38-0.66,5.12-1.97C105.95,114.94,106.75,115.63,107.05,115.99z"/>
		<path class="st15" d="M192.58,135.94c0,2.4,0.26,4.35,0.79,5.87c0.52,1.51,1.45,2.68,2.76,3.5c0.03,0.16,0.05,0.44,0.05,0.83v0.74
			c0,4.5-1.31,8.01-3.94,10.54c-2.63,2.53-6.02,3.8-10.17,3.8c-4.16,0-7.5-1.13-10.03-3.4c-2.99-2.63-4.48-6.65-4.48-12.07v-15.57
			c0-2.2-0.72-3.3-2.17-3.3c-0.56,0-1,0.13-1.33,0.39l0.89,7.34v11.14c0,4.47,0.74,7.85,2.22,10.15c-1.58,1.68-3.54,2.98-5.89,3.92
			c-2.35,0.93-4.74,1.4-7.17,1.4c-3.94,0-7-0.95-9.16-2.86c-2.63-2.3-3.94-5.93-3.94-10.89v-17.3c0-2.2-0.72-3.3-2.17-3.3
			c-0.56,0-1,0.13-1.33,0.39l0.89,7.34v13.06c0,3.68,0.49,6.52,1.48,8.52c-3.22,3.32-7.74,4.97-13.55,4.97
			c-3.45,0-6.36-0.87-8.72-2.61c-2.73-2.01-4.09-4.7-4.09-8.08v-23.55c-1.94-2.72-2.91-6.09-2.91-10.07c0-3.99,0.97-7.45,2.91-10.37
			h11.87c2.33,0,4.32,0.87,5.96,2.61c-1.45,1.34-2.17,2.46-2.17,3.35c0,1.02,0.57,1.53,1.72,1.53c1.45-2.5,3.43-4.49,5.96-5.96
			c2.96-1.68,6.42-2.51,10.4-2.51c3.02,0,5.67,0.64,7.96,1.92c2.28,1.28,3.99,2.76,5.1,4.43c1.54-2.1,3.56-3.69,6.03-4.75
			c2.48-1.07,5.07-1.6,7.76-1.6c5.94,0,10.56,1.84,13.85,5.52c3.22,3.68,4.83,8.72,4.83,15.12L192.58,135.94z"/>
		<path class="st15" d="M226.38,161.86c-9.1,0-16.28-2.53-21.53-7.59c-5.39-5.09-8.08-12.06-8.08-20.91
			c0-8.85,2.78-15.87,8.33-21.06c5.12-4.82,11.61-7.24,19.46-7.24c7.85,0,14.15,2.16,18.9,6.48c4.74,4.32,7.12,9.63,7.12,15.93
			c0,5.62-1.95,9.85-5.86,12.72c-3.61,2.69-8.54,4.03-14.78,4.03c-4.66,0-8.61-0.97-11.83-2.9c-0.26,0.2-0.39,0.56-0.39,1.08
			c0,0.99,1.3,1.89,3.89,2.71c2.59,0.88,5.54,1.33,8.85,1.33c3.3,0,6.31-0.42,9.01-1.26c2.71-0.83,4.89-1.83,6.53-2.98
			c0.79,0.69,1.42,1.97,1.9,3.82c0.48,1.85,0.71,3.55,0.71,5.07c0,1.53-0.15,2.89-0.44,4.07c-2.56,2.17-5.19,3.71-7.88,4.63
			C236.47,161.17,231.83,161.86,226.38,161.86z M225.74,128.5c1.64,0,2.46-0.63,2.46-1.87c0-1.18-0.87-1.77-2.61-1.77
			c-1.74,0-2.74,0.94-3.01,2.81C223.51,128.23,224.56,128.5,225.74,128.5z"/>
	</g>
	<g>
		<path class="st15" d="M67.05,41.37v34.64c-1.51,1.32-3.53,2.41-6.06,3.3c-2.53,0.88-5.6,1.33-9.21,1.33
			c-3.61,0-6.68-0.81-9.21-2.42c-2.86-1.74-4.29-4.2-4.29-7.38V39.11H26.8c-2.37-3.39-3.55-7.08-3.55-11.09
			c0-2.72,0.43-5.1,1.31-7.12c0.87-2.02,1.94-3.59,3.23-4.71h50.95c0.95,1.48,1.74,3.27,2.37,5.37c0.62,2.1,0.94,4.19,0.94,6.25
			c0,3.88-0.86,6.72-2.56,8.55c-1.71,1.82-4.01,2.74-6.9,2.74H58.13c-0.1,0.23-0.15,0.48-0.15,0.74c0,0.59,0.34,0.99,1.03,1.18
			c0.72,0.23,2.27,0.34,4.63,0.34H67.05z"/>
		<path class="st15" d="M107.55,81.28c-9.1,0-16.28-2.53-21.53-7.59c-5.39-5.09-8.08-12.06-8.08-20.91s2.78-15.87,8.33-21.06
			c5.12-4.82,11.61-7.24,19.46-7.24s14.15,2.16,18.9,6.48c4.74,4.32,7.12,9.63,7.12,15.93c0,5.62-1.95,9.85-5.86,12.72
			c-3.61,2.69-8.54,4.03-14.78,4.03c-4.66,0-8.61-0.97-11.83-2.9c-0.26,0.2-0.39,0.56-0.39,1.08c0,0.99,1.3,1.89,3.89,2.71
			c2.59,0.88,5.54,1.33,8.85,1.33c3.3,0,6.31-0.42,9.01-1.26c2.71-0.83,4.89-1.83,6.53-2.98c0.79,0.69,1.42,1.97,1.9,3.82
			c0.48,1.85,0.71,3.55,0.71,5.07c0,1.53-0.15,2.89-0.44,4.07c-2.56,2.17-5.19,3.71-7.88,4.63C117.64,80.59,113,81.28,107.55,81.28z
			 M106.91,47.92c1.64,0,2.46-0.63,2.46-1.87c0-1.18-0.87-1.77-2.61-1.77c-1.74,0-2.74,0.94-3.01,2.81
			C104.68,47.65,105.73,47.92,106.91,47.92z"/>
		<path class="st15" d="M183.87,55.36c0,2.37,0.26,4.27,0.79,5.72c0.52,1.45,1.45,2.58,2.76,3.4c0.03,0.16,0.05,0.48,0.05,0.93v0.89
			c0,4.66-1.41,8.29-4.24,10.89c-2.5,2.3-5.59,3.45-9.26,3.45c-2.5,0-4.78-0.59-6.85-1.77c-2.07-1.18-3.55-2.89-4.43-5.12
			c-1.12,0-1.68,0.54-1.68,1.63c0,0.92,0.57,1.95,1.72,3.1c-2.14,1.44-5.35,2.17-9.66,2.17c-6.08,0-10.93-1.65-14.56-4.95
			c-3.63-3.3-5.44-7.92-5.44-13.85s1.92-10.52,5.76-13.77c3.52-2.92,8.06-4.38,13.65-4.38c1.9,0,3.74,0.13,5.52,0.39
			c1.18,0.23,1.82,0.36,1.92,0.39c0.1-0.33,0.15-0.61,0.15-0.83c0-0.86-0.72-1.43-2.17-1.73s-3.33-0.44-5.67-0.44
			c-4.96,0-9.2,1-12.71,3c-1.61-2.72-2.41-6.17-2.41-10.35c0-2.37,0.3-4.12,0.89-5.27c2.37-1.09,5.37-2.05,9.02-2.89
			c3.65-0.83,7.49-1.25,11.53-1.25c8.34,0,14.65,1.82,18.92,5.47s6.41,8.82,6.41,15.52V55.36z M158.3,57.78
			c-1.38,0-2.07,0.63-2.07,1.87c0,1.18,0.81,1.77,2.41,1.77c1.12,0,1.94-0.27,2.46-0.81c0.52-0.54,0.79-1.49,0.79-2.83H158.3z"/>
	</g>
	<path class="st14" d="M43.09,190.27c0,7.31,3.96,14.98,25.76,8.91c25.49-7.11,90.56-7.28,102.87-6.95
		c12.01,0.32,17.56,29.48,57.77,16.4c11.04-3.59,21.08-11.18,21.07-18.38c-0.01-7.22-10.05-14.75-21.07-18.34
		c-40.21-13.08-45.77,16.08-57.77,16.4c-12.32,0.33-77.38,0.16-102.87-6.95C47.05,175.29,43.09,182.95,43.09,190.27z"/>
</g>
</svg>
