<?xml version="1.0" encoding="utf-8"?>
<!-- Generator: Adobe Illustrator 24.1.0, SVG Export Plug-In . SVG Version: 6.00 Build 0)  -->
<svg version="1.1" id="Capa_1" xmlns="http://www.w3.org/2000/svg" xmlns:xlink="http://www.w3.org/1999/xlink" x="0px" y="0px"
	 viewBox="0 0 512 512" style="enable-background:new 0 0 512 512;" xml:space="preserve">
<style type="text/css">
	.st0{fill:#66BB00;}
	.st1{fill:#5F9303;}
	.st2{fill:#E7E7E7;}
	.st3{fill:#D3D3D8;}
</style>
<path class="st0" d="M256,0C115.3,0,0,115.3,0,256s115.3,256,256,256s256-115.3,256-256S396.7,0,256,0z"/>
<path class="st1" d="M512,256c0,140.7-115.3,256-256,256V0C396.7,0,512,115.3,512,256z"/>
<polygon class="st2" points="406,226 406,286 286,286 286,406 226,406 226,286 106,286 106,226 226,226 226,106 286,106 286,226 "/>
<polygon class="st3" points="406,226 406,286 286,286 286,406 256,406 256,106 286,106 286,226 "/>
</svg>
