<?xml version="1.0" encoding="utf-8"?>
<!-- Generator: Adobe Illustrator 24.1.0, SVG Export Plug-In . SVG Version: 6.00 Build 0)  -->
<svg version="1.1" xmlns="http://www.w3.org/2000/svg" xmlns:xlink="http://www.w3.org/1999/xlink" x="0px" y="0px"
	 viewBox="0 0 45.42 88.14" style="enable-background:new 0 0 45.42 88.14;" xml:space="preserve">
<style type="text/css">
	.st0{fill-rule:evenodd;clip-rule:evenodd;fill:#FFFFFF;}
	.st1{fill-rule:evenodd;clip-rule:evenodd;fill:#F78154;}
	.st2{fill-rule:evenodd;clip-rule:evenodd;fill:#88B59E;}
	.st3{fill-rule:evenodd;clip-rule:evenodd;fill:#2F704F;}
	.st4{fill:#293D33;}
	.st5{fill-rule:evenodd;clip-rule:evenodd;fill:#293D33;}
	.st6{fill:#FFFFFF;}
	.st7{fill:#B2773D;}
	.st8{fill-rule:evenodd;clip-rule:evenodd;fill:#B2773D;}
	.st9{fill-rule:evenodd;clip-rule:evenodd;fill:#707346;}
	.st10{fill-rule:evenodd;clip-rule:evenodd;fill:#8A5119;}
	.st11{fill:#84D7D6;}
	.st12{fill:#EEAF1B;}
	.st13{fill:#F78154;}
	.st14{fill-rule:evenodd;clip-rule:evenodd;fill:#EEAF1B;}
	.st15{fill:#545F66;}
</style>
<g id="Background">
</g>
<g id="Objects">
	<polygon class="st6" points="33.49,40.83 23.68,40.83 23.68,3.96 20.97,3.96 20.97,40.83 11.16,40.83 6.37,47.91 6.37,79.82 
		38.28,79.82 38.28,47.91 	"/>
	<path class="st1" d="M19.79,74.15C14.08,58.68,32.36,57.1,34.52,50.96c4.21,23.44-5.12,25.66-12.93,24.53
		c4.08-2.72,8.39-7.92,10.6-17.3C31.2,61.74,26.96,70.25,19.79,74.15z"/>
	<path class="st14" d="M18.05,64.7c7.05-9.2-4.01-14.59-3.98-19.28c-7.91,14.99-2.59,18.7,2.55,19.77
		c-1.94-2.81-3.46-7.38-2.73-14.29C13.72,53.56,14.45,60.36,18.05,64.7z"/>
</g>
</svg>
