<?xml version="1.0" encoding="utf-8"?>
<!-- Generator: Adobe Illustrator 24.1.0, SVG Export Plug-In . SVG Version: 6.00 Build 0)  -->
<svg version="1.1" xmlns="http://www.w3.org/2000/svg" xmlns:xlink="http://www.w3.org/1999/xlink" x="0px" y="0px"
	 viewBox="0 0 152.79 106.99" style="enable-background:new 0 0 152.79 106.99;" xml:space="preserve">
<style type="text/css">
	.st0{fill-rule:evenodd;clip-rule:evenodd;fill:#FFFFFF;}
	.st1{fill-rule:evenodd;clip-rule:evenodd;fill:#F78154;}
	.st2{fill-rule:evenodd;clip-rule:evenodd;fill:#88B59E;}
	.st3{fill-rule:evenodd;clip-rule:evenodd;fill:#2F704F;}
	.st4{fill:#293D33;}
	.st5{fill-rule:evenodd;clip-rule:evenodd;fill:#293D33;}
	.st6{fill:#FFFFFF;}
	.st7{fill:#B2773D;}
	.st8{fill-rule:evenodd;clip-rule:evenodd;fill:#B2773D;}
	.st9{fill-rule:evenodd;clip-rule:evenodd;fill:#707346;}
	.st10{fill-rule:evenodd;clip-rule:evenodd;fill:#8A5119;}
	.st11{fill:#84D7D6;}
	.st12{fill:#EEAF1B;}
	.st13{fill:#F78154;}
	.st14{fill-rule:evenodd;clip-rule:evenodd;fill:#EEAF1B;}
	.st15{fill:#545F66;}
</style>
<g id="Background">
</g>
<g id="Objects">
	<path class="st0" d="M143.97,8.79H43.04c-0.07,2.77,0.02,6.42,0.28,10.68c-1.47-1.34-3.19-2.58-5.13-3.6
		c-3.63-1.92-8-3.14-12.81-3.03c-2.71,0.06-5.5,0.53-8.31,1.54l-0.01-0.01c-0.49,0.17-1.02,0.39-1.59,0.63
		c-5.77,2.48-9.42,6.41-10.51,11.24c-1.02,4.5,0.26,9.75,4.24,15.21c0.64,0.88,1.32,1.73,2.01,2.53c4.25,4.86,10.55,9.11,17,13.47
		c9.13,6.16,18.6,12.55,21.09,20.3c0.6,1.87,3.25,3.04,5.91,2.62c0.23-0.04,0.45-0.1,0.67-0.16c3.84,9.22,8.67,16.85,14.66,21.08
		h45.91C137.89,86.18,144.44,27.47,143.97,8.79z M35.08,52.44c-5.99-4.04-11.84-7.99-15.42-12.08c-0.65-0.74-1.2-1.43-1.67-2.07
		c-2.98-4.09-3.97-7.87-3.27-10.97c0.63-2.78,2.68-5.03,5.9-6.41c0.24-0.1,0.55-0.22,0.94-0.36l-0.01-0.01l0.01,0
		c1.43-0.51,2.8-0.75,4.09-0.78c2.35-0.05,4.61,0.61,6.57,1.65c2.2,1.16,3.99,2.75,5.19,4.39c0.93,1.28,1.47,2.53,1.52,3.57
		c0.08,1.91,2.35,3.42,5.08,3.37c0.18,0,0.36-0.03,0.54-0.05c1.18,9.78,3.09,20.83,5.92,31.3C46.01,59.83,40.5,56.1,35.08,52.44z"/>
	<path class="st1" d="M49.43,19.76c0,0,43.75-14.88,87.47,0C136.9,19.76,136.98,59.69,49.43,19.76z"/>
	<path class="st14" d="M136.9,19.76c0.75,45.66-20.65,74.1-20.65,74.1H73.08c0,0-22.28-21.3-23.65-74.1c0,0,22.86-4.74,43.78,10.65
		S136.9,19.76,136.9,19.76z"/>
</g>
</svg>
