<?xml version="1.0" encoding="utf-8"?>
<!-- Generator: Adobe Illustrator 24.1.0, SVG Export Plug-In . SVG Version: 6.00 Build 0)  -->
<svg version="1.1" xmlns="http://www.w3.org/2000/svg" xmlns:xlink="http://www.w3.org/1999/xlink" x="0px" y="0px"
	 viewBox="0 0 318 234.99" style="enable-background:new 0 0 318 234.99;" xml:space="preserve">
<style type="text/css">
	.st0{fill-rule:evenodd;clip-rule:evenodd;fill:#FFFFFF;}
	.st1{fill-rule:evenodd;clip-rule:evenodd;fill:#88B59E;}
	.st2{fill-rule:evenodd;clip-rule:evenodd;fill:#2F704F;}
	.st3{fill:#FFFFFF;}
	.st4{fill:#293D33;}
	.st5{fill-rule:evenodd;clip-rule:evenodd;fill:#293D33;}
	.st6{fill:#8A5119;}
	.st7{fill-rule:evenodd;clip-rule:evenodd;fill:#B2773D;}
	.st8{fill:#B2773D;}
	.st9{fill-rule:evenodd;clip-rule:evenodd;fill:#707346;}
	.st10{fill-rule:evenodd;clip-rule:evenodd;fill:#8A5119;}
</style>
<g id="Background">
</g>
<g id="Objects">
	<g>
		<path class="st3" d="M290.82,96.39c-4.71-3.62-10.41-5.69-16.23-6.16c-5.76-0.46-11.73,0.66-17.01,3.42
			c-6.25,3.27-11.47,8.73-14.2,16.44c-6.47-17.61-18.5-32.63-34.01-43.03H107.53c-19.2,12.87-33.05,32.81-37.65,55.99
			c-28.02,1.04-5.56-46.4-37.43-61.33c-2.68-1.35-4.76,5.21-11.01,3.22c-6.21-1.97-10.09,3.07-8.19,3.49
			C67.25,80.37-8.02,162.28,74.8,173.11c9.17,22.14,27.24,39.81,49.86,48.76h67.57c14.37-5.68,26.9-14.89,36.48-26.52
			c0.89,1.42,2.26,2.55,3.99,3.08c3.82,1.19,7.88-0.94,9.07-4.76c2.88-9.26,11.86-14.54,21.56-20.26
			c14.94-8.8,31.27-18.42,37.34-43.38C304.49,114.37,299.39,102.98,290.82,96.39z M286.61,126.64c-4.63,19-18.19,27-30.59,34.3
			c-4.27,2.52-8.43,4.98-12.23,7.73c3.16-9,4.89-18.65,4.89-28.71c0-2.48-0.11-4.93-0.32-7.35c0.27,0.01,0.54,0.01,0.81-0.01
			c3.99-0.27,7.01-3.72,6.75-7.71c-0.66-9.7,3.16-15.72,8.35-18.43c2.78-1.45,6-2.03,9.19-1.78c3.13,0.25,6.13,1.31,8.52,3.15
			C286.35,111.2,288.84,117.49,286.61,126.64z"/>
		<path class="st3" d="M209.37,58.1c-11.91-7.98-25.87-13.24-40.96-14.86c2.08-2.35,3.35-5.42,3.35-8.79
			c0-7.33-5.98-13.31-13.31-13.31c-7.33,0-13.31,5.98-13.31,13.31c0,3.37,1.27,6.44,3.35,8.79c-15.08,1.62-29.05,6.88-40.96,14.86
			H209.37z"/>
	</g>
</g>
</svg>
